<svg width="18" height="18" viewBox="0 0 18 18" fill="none" xmlns="http://www.w3.org/2000/svg">
<rect width="18" height="18" rx="9" fill="#CBD0DD"/>
<path d="M11.9883 11.2867C12.2473 11.5258 12.2473 11.9441 11.9883 12.1832C11.8687 12.3027 11.7094 12.3625 11.55 12.3625C11.3707 12.3625 11.2113 12.3027 11.0918 12.1832L9 10.0914L6.88828 12.1832C6.76875 12.3027 6.60937 12.3625 6.45 12.3625C6.2707 12.3625 6.11133 12.3027 5.9918 12.1832C5.73281 11.9441 5.73281 11.5258 5.9918 11.2867L8.08359 9.175L5.9918 7.0832C5.73281 6.84414 5.73281 6.42578 5.9918 6.18672C6.23086 5.92773 6.64922 5.92773 6.88828 6.18672L9 8.27852L11.0918 6.18672C11.3309 5.92773 11.7492 5.92773 11.9883 6.18672C12.2473 6.42578 12.2473 6.84414 11.9883 7.0832L9.89648 9.19492L11.9883 11.2867Z" fill="currentColor"/>
</svg>
