<svg width="25" height="24" viewBox="0 0 25 24" fill="none" xmlns="http://www.w3.org/2000/svg">
<path d="M7.52 13.5C5.31 13.5 3.52 15.29 3.52 17.5C3.52 19.71 5.31 21.5 7.52 21.5C9.73 21.5 11.52 19.71 11.52 17.5C11.52 15.29 9.73 13.5 7.52 13.5ZM7.52 19.5C6.42 19.5 5.52 18.6 5.52 17.5C5.52 16.4 6.42 15.5 7.52 15.5C8.62 15.5 9.52 16.4 9.52 17.5C9.52 18.6 8.62 19.5 7.52 19.5ZM13.5 13.5V21.5H21.5V13.5H13.5ZM19.5 19.5H15.5V15.5H19.5V19.5ZM7.5 2.5L2.5 11.5H12.5L7.5 2.5ZM7.5 6.62L9.1 9.5H5.9L7.5 6.62ZM19.75 3C18.69 3 17.94 3.56 17.5 4.17C17.06 3.56 16.31 3 15.25 3C13.69 3 12.5 4.28 12.5 5.75C12.5 7.75 14.92 9.17 17.5 11.5C20.08 9.17 22.5 7.75 22.5 5.75C22.5 4.28 21.31 3 19.75 3ZM17.5 8.85C16.05 7.63 14.5 6.45 14.5 5.75C14.5 5.32 14.85 5 15.25 5C15.56 5 15.77 5.17 15.98 5.37L17.5 6.8L19.02 5.37C19.23 5.17 19.44 5 19.75 5C20.15 5 20.5 5.32 20.5 5.75C20.5 6.45 18.95 7.63 17.5 8.85Z" fill="currentColor"/>
</svg>
