<svg width="25" height="24" viewBox="0 0 25 24" fill="none" xmlns="http://www.w3.org/2000/svg">
<path d="M20.5 5H11.38L10.5 2H4.5C3.4 2 2.5 2.9 2.5 4V17C2.5 18.1 3.4 19 4.5 19H11.5L12.5 22H20.5C21.6 22 22.5 21.1 22.5 20V7C22.5 5.9 21.6 5 20.5 5ZM7.67 14.59C5.42 14.59 3.58 12.76 3.58 10.5C3.58 8.24 5.41 6.41 7.67 6.41C8.71 6.41 9.66 6.78 10.41 7.48L10.48 7.54L9.25 8.72L9.19 8.67C8.9 8.4 8.41 8.08 7.67 8.08C6.36 8.08 5.29 9.17 5.29 10.5C5.29 11.83 6.36 12.92 7.67 12.92C9.04 12.92 9.63 12.05 9.79 11.46H7.58V9.91H11.53L11.54 9.98C11.58 10.19 11.59 10.38 11.59 10.59C11.59 12.94 9.98 14.59 7.67 14.59ZM13.7 12.88C14.03 13.48 14.44 14.06 14.89 14.58L14.35 15.11L13.7 12.88ZM14.47 12.12H13.48L13.17 11.08H17.16C17.16 11.08 16.82 12.39 15.6 13.82C15.08 13.2 14.71 12.59 14.47 12.12ZM21.5 20C21.5 20.55 21.05 21 20.5 21H13.5L15.5 19L14.69 16.23L15.61 15.31L18.29 18L19.02 17.27L16.31 14.59C17.21 13.56 17.91 12.34 18.23 11.08H19.5V10.04H15.86V9H14.82V10.04H12.86L11.68 6H20.5C21.05 6 21.5 6.45 21.5 7V20Z" fill="currentColor"/>
</svg>
