<svg width="24" height="24" viewBox="0 0 24 24" fill="none" xmlns="http://www.w3.org/2000/svg">
<path d="M10 13H3C2.73478 13 2.48043 13.1054 2.29289 13.2929C2.10536 13.4804 2 13.7348 2 14V21C2 21.2652 2.10536 21.5196 2.29289 21.7071C2.48043 21.8946 2.73478 22 3 22H10C10.2652 22 10.5196 21.8946 10.7071 21.7071C10.8946 21.5196 11 21.2652 11 21V14C11 13.7348 10.8946 13.4804 10.7071 13.2929C10.5196 13.1054 10.2652 13 10 13ZM9 20H4V15H9V20ZM21 2H14C13.7348 2 13.4804 2.10536 13.2929 2.29289C13.1054 2.48043 13 2.73478 13 3V10C13 10.2652 13.1054 10.5196 13.2929 10.7071C13.4804 10.8946 13.7348 11 14 11H21C21.2652 11 21.5196 10.8946 21.7071 10.7071C21.8946 10.5196 22 10.2652 22 10V3C22 2.73478 21.8946 2.48043 21.7071 2.29289C21.5196 2.10536 21.2652 2 21 2ZM20 9H15V4H20V9ZM10 2H3C2.73478 2 2.48043 2.10536 2.29289 2.29289C2.10536 2.48043 2 2.73478 2 3V10C2 10.2652 2.10536 10.5196 2.29289 10.7071C2.48043 10.8946 2.73478 11 3 11H10C10.2652 11 10.5196 10.8946 10.7071 10.7071C10.8946 10.5196 11 10.2652 11 10V3C11 2.73478 10.8946 2.48043 10.7071 2.29289C10.5196 2.10536 10.2652 2 10 2ZM9 9H4V4H9V9Z" fill="currentColor"/>
<path fill-rule="evenodd" clip-rule="evenodd" d="M21.9777 17.947C21.8743 18.9829 21.415 19.9508 20.678 20.686C20.2593 21.1036 19.7624 21.4346 19.2157 21.6601C18.6691 21.8855 18.0833 22.001 17.492 22C16.451 21.9981 15.4428 21.6354 14.6393 20.9736C13.8357 20.3118 13.2864 19.3919 13.085 18.3706C12.8836 17.3493 13.0426 16.2897 13.5347 15.3724C14.0269 14.4551 14.8219 13.7368 15.7843 13.3399C16.7466 12.943 17.8168 12.892 18.8126 13.1957C19.8083 13.4993 20.6679 14.1388 21.2451 15.0051C21.8222 15.8715 22.0811 16.9112 21.9777 17.947ZM17.5 20C18.8807 20 20 18.8807 20 17.5C20 16.1193 18.8807 15 17.5 15C16.1193 15 15 16.1193 15 17.5C15 18.8807 16.1193 20 17.5 20Z" fill="currentColor"/>
</svg>
