<svg width="24" height="24" viewBox="0 0 24 24" fill="none" xmlns="http://www.w3.org/2000/svg">
<path d="M20.47 7.372C20.47 7.372 20.47 7.372 20.47 7.292L20.41 7.142C20.3891 7.11017 20.3657 7.08008 20.34 7.052C20.3133 7.00967 20.2832 6.96954 20.25 6.932L20.16 6.862L20 6.782L12.5 2.152C12.3411 2.05267 12.1574 2 11.97 2C11.7826 2 11.599 2.05267 11.44 2.152L4.00002 6.782L3.91002 6.862L3.82002 6.932C3.78687 6.96954 3.75678 7.00967 3.73002 7.052C3.70431 7.08008 3.68091 7.11017 3.66002 7.142L3.60002 7.292C3.60002 7.292 3.60002 7.292 3.60002 7.372C3.59019 7.45839 3.59019 7.54561 3.60002 7.632V16.372C3.59968 16.5419 3.64266 16.7092 3.72489 16.8579C3.80713 17.0066 3.92591 17.1319 4.07002 17.222L11.57 21.852C11.6162 21.8805 11.6669 21.9008 11.72 21.912C11.72 21.912 11.77 21.912 11.8 21.912C11.9692 21.9657 12.1508 21.9657 12.32 21.912C12.32 21.912 12.37 21.912 12.4 21.912C12.4531 21.9008 12.5039 21.8805 12.55 21.852L20 17.222C20.1441 17.1319 20.2629 17.0066 20.3452 16.8579C20.4274 16.7092 20.4704 16.5419 20.47 16.372V7.632C20.4799 7.54561 20.4799 7.45839 20.47 7.372ZM11 19.212L5.50002 15.812V9.432L11 12.822V19.212ZM12 11.092L6.40002 7.632L12 4.182L17.6 7.632L12 11.092ZM18.5 15.812L13 19.212V12.822L18.5 9.432V15.812Z" fill="currentColor"/>
</svg>
