<svg width="24" height="24" viewBox="0 0 24 24" fill="none" xmlns="http://www.w3.org/2000/svg">
<path d="M2.50003 8.85866L11.5 14.0587C11.6521 14.1464 11.8245 14.1926 12 14.1926C12.1756 14.1926 12.348 14.1464 12.5 14.0587L21.5 8.85866C21.6512 8.77141 21.7768 8.64612 21.8646 8.49525C21.9523 8.34438 21.999 8.17318 22 7.99866C22.0007 7.82245 21.9549 7.64919 21.8671 7.49641C21.7792 7.34363 21.6526 7.21677 21.5 7.12866L12.5 1.93866C12.348 1.85089 12.1756 1.80469 12 1.80469C11.8245 1.80469 11.6521 1.85089 11.5 1.93866L2.50003 7.12866C2.34743 7.21677 2.22081 7.34363 2.13301 7.49641C2.04521 7.64919 1.99933 7.82245 2.00003 7.99866C2.00108 8.17318 2.04779 8.34438 2.13551 8.49525C2.22322 8.64612 2.34889 8.77141 2.50003 8.85866ZM12 3.99866L19 7.99866L12 11.9987L5.00003 7.99866L12 3.99866ZM20.5 11.1687L12 15.9987L3.50003 11.1287C3.3859 11.0625 3.25981 11.0197 3.12903 11.0025C2.99825 10.9853 2.86537 10.9941 2.73803 11.0285C2.61069 11.0629 2.49141 11.1222 2.38706 11.2029C2.28271 11.2835 2.19536 11.3841 2.13003 11.4987C1.99966 11.7283 1.96539 12.0001 2.03471 12.2549C2.10403 12.5097 2.2713 12.7267 2.50003 12.8587L11.5 18.0587C11.6521 18.1464 11.8245 18.1926 12 18.1926C12.1756 18.1926 12.348 18.1464 12.5 18.0587L21.5 12.8587C21.7288 12.7267 21.896 12.5097 21.9654 12.2549C22.0347 12.0001 22.0004 11.7283 21.87 11.4987C21.8047 11.3841 21.7173 11.2835 21.613 11.2029C21.5087 11.1222 21.3894 11.0629 21.262 11.0285C21.1347 10.9941 21.0018 10.9853 20.871 11.0025C20.7402 11.0197 20.6142 11.0625 20.5 11.1287V11.1687ZM20.5 15.1687L12 19.9987L3.50003 15.1287C3.3859 15.0625 3.25981 15.0197 3.12903 15.0025C2.99825 14.9853 2.86537 14.9941 2.73803 15.0285C2.61069 15.0629 2.49141 15.1222 2.38706 15.2029C2.28271 15.2835 2.19536 15.3841 2.13003 15.4987C1.99966 15.7283 1.96539 16.0001 2.03471 16.2549C2.10403 16.5097 2.2713 16.7267 2.50003 16.8587L11.5 22.0587C11.6521 22.1464 11.8245 22.1926 12 22.1926C12.1756 22.1926 12.348 22.1464 12.5 22.0587L21.5 16.8587C21.7288 16.7267 21.896 16.5097 21.9654 16.2549C22.0347 16.0001 22.0004 15.7283 21.87 15.4987C21.8047 15.3841 21.7173 15.2835 21.613 15.2029C21.5087 15.1222 21.3894 15.0629 21.262 15.0285C21.1347 14.9941 21.0018 14.9853 20.871 15.0025C20.7402 15.0197 20.6142 15.0625 20.5 15.1287V15.1687Z" fill="currentColor"/>
</svg>
