<svg width="24" height="24" viewBox="0 0 24 24" fill="none" xmlns="http://www.w3.org/2000/svg">
<path d="M3 13H14.59L12.29 15.29C12.1968 15.3832 12.1228 15.4939 12.0723 15.6158C12.0219 15.7376 11.9959 15.8681 11.9959 16C11.9959 16.1319 12.0219 16.2624 12.0723 16.3842C12.1228 16.5061 12.1968 16.6168 12.29 16.71C12.3832 16.8032 12.4939 16.8772 12.6158 16.9277C12.7376 16.9781 12.8681 17.0041 13 17.0041C13.1319 17.0041 13.2624 16.9781 13.3842 16.9277C13.5061 16.8772 13.6168 16.8032 13.71 16.71L17.71 12.71C17.801 12.6149 17.8724 12.5028 17.92 12.38C18.02 12.1365 18.02 11.8635 17.92 11.62C17.8724 11.4972 17.801 11.3851 17.71 11.29L13.71 7.29C13.617 7.19627 13.5064 7.12188 13.3846 7.07111C13.2627 7.02034 13.132 6.9942 13 6.9942C12.868 6.9942 12.7373 7.02034 12.6154 7.07111C12.4936 7.12188 12.383 7.19627 12.29 7.29C12.1963 7.38296 12.1219 7.49356 12.0711 7.61542C12.0203 7.73728 11.9942 7.86799 11.9942 8C11.9942 8.13201 12.0203 8.26272 12.0711 8.38458C12.1219 8.50644 12.1963 8.61704 12.29 8.71L14.59 11H3C2.73478 11 2.48043 11.1054 2.29289 11.2929C2.10536 11.4804 2 11.7348 2 12C2 12.2652 2.10536 12.5196 2.29289 12.7071C2.48043 12.8946 2.73478 13 3 13ZM21 21C21.2652 21 21.5196 20.8946 21.7071 20.7071C21.8946 20.5196 22 20.2652 22 20L22 4C22 3.73478 21.8946 3.48043 21.7071 3.29289C21.5196 3.10536 21.2652 3 21 3C20.7348 3 20.4804 3.10536 20.2929 3.29289C20.1054 3.48043 20 3.73478 20 4L20 20C20 20.2652 20.1054 20.5196 20.2929 20.7071C20.4804 20.8946 20.7348 21 21 21V21Z" fill="currentColor"/>
</svg>
